<svg width="1280" height="720" xmlns="http://www.w3.org/2000/svg" xmlns:xlink="http://www.w3.org/1999/xlink" overflow="hidden"><g><rect x="0" y="0" width="1280" height="720" fill="#FFFFFF"/><path d="M100 447C142.085 346.146 184.171 245.293 262.329 240.839 340.488 236.385 461.376 438.94 568.952 420.275 676.527 401.611 798.275 157.484 907.783 128.85 1017.29 100.217 1145.05 240.415 1226 248.475" stroke="#D1D1D1" stroke-width="6" stroke-miterlimit="8" fill="none" fill-rule="evenodd"/><path d="M52.7734 542.167 1229.8 542.167 1229.8 545.833 52.7734 545.833ZM68.3863 554.769 49.0016 544 68.3863 533.231C69.2714 532.739 70.3876 533.058 70.8793 533.943 71.371 534.828 71.0521 535.944 70.167 536.436L53.667 545.603 53.667 542.397 70.167 551.564C71.0521 552.056 71.371 553.172 70.8793 554.057 70.3876 554.942 69.2714 555.261 68.3863 554.769Z"/><text font-family="Times New Roman,Times New Roman_MSFontService,sans-serif" font-weight="400" font-size="43" transform="translate(21.3446 650)">Time</text><text font-family="Cambria Math,Cambria Math_MSFontService,sans-serif" font-weight="400" font-size="43" transform="translate(124.511 650)">0</text><text font-family="Times New Roman,Times New Roman_MSFontService,sans-serif" font-weight="400" font-size="43" transform="translate(33.3312 702)">Clean</text><text font-family="Times New Roman,Times New Roman_MSFontService,sans-serif" font-weight="400" font-size="43" transform="translate(1133.07 651)">Time</text><text font-family="Cambria Math,Cambria Math_MSFontService,sans-serif" font-weight="400" font-size="43" transform="translate(1236.23 651)">ğ‘‡</text><text font-family="Times New Roman,Times New Roman_MSFontService,sans-serif" font-weight="400" font-size="43" transform="translate(1146.35 702)">Noise</text><text fill="#7F7F7F" font-family="Times New Roman,Times New Roman_MSFontService,sans-serif" font-weight="400" font-size="43" transform="translate(1033.63 305)">PF</text><text fill="#7F7F7F" font-family="Times New Roman,Times New Roman_MSFontService,sans-serif" font-weight="400" font-size="43" transform="translate(1082.56 305)">-</text><text fill="#7F7F7F" font-family="Times New Roman,Times New Roman_MSFontService,sans-serif" font-weight="400" font-size="43" transform="translate(1097.53 305)">ODE</text><text fill="#7F7F7F" font-family="Times New Roman,Times New Roman_MSFontService,sans-serif" font-weight="400" font-size="43" transform="translate(953.859 356)">Oracle Trajectory</text><path d="M507.5 68.5001 507.5 587.726" stroke="#D1D1D1" stroke-width="3" stroke-miterlimit="8" stroke-dasharray="12 9" fill="none" fill-rule="evenodd"/><text font-family="Cambria Math,Cambria Math_MSFontService,sans-serif" font-weight="400" font-size="43" transform="translate(498.016 625)">ğ‘¡</text><path d="M925.5 68.5001 925.5 587.726" stroke="#D1D1D1" stroke-width="3" stroke-miterlimit="8" stroke-dasharray="12 9" fill="none" fill-rule="evenodd"/><text font-family="Cambria Math,Cambria Math_MSFontService,sans-serif" font-weight="400" font-size="43" transform="translate(914.591 625)">ğ‘ </text><path d="M100.5 68.5001 100.5 587.726" stroke="#D1D1D1" stroke-width="3" stroke-miterlimit="8" stroke-dasharray="12 9" fill="none" fill-rule="evenodd"/><path d="M768.5 68.5001 768.5 587.726" stroke="#D1D1D1" stroke-width="3" stroke-miterlimit="8" stroke-dasharray="12 9" fill="none" fill-rule="evenodd"/><text font-family="Cambria Math,Cambria Math_MSFontService,sans-serif" font-weight="400" font-size="43" transform="translate(755.167 625)">ğ‘¢</text><path d="M923.084 124.38 918.467 120.549 922.298 115.931 926.916 119.762ZM913.849 116.718 912.914 115.942 912.978 115.993 909.213 113.04 912.916 108.319 916.714 111.298 917.68 112.1ZM904.492 109.337 902.825 108.029 902.966 108.133 899.778 105.922 903.198 100.991 906.459 103.253 908.196 104.616ZM894.848 102.502 892.847 101.114 893.021 101.226 889.958 99.3995 893.032 94.2464 896.182 96.1256 898.267 97.5718ZM884.856 96.6144 883.114 95.7158 883.32 95.8125 879.6 94.238 881.938 88.7124 885.764 90.3313 887.607 91.2821ZM874.187 92.3937 873.581 92.201 873.901 92.2836 868.932 91.2873 869.313 91.3385 869.017 91.3178 869.435 85.3324 869.923 85.3666 875.243 86.4333 876.006 86.6762ZM863.462 91.0905 859.879 91.3554 860.335 91.2862 857.989 91.8291 856.636 85.9837 859.206 85.3887 863.02 85.1068ZM852.748 93.5446 851.027 94.2383 851.429 94.0403 847.858 96.1453 844.811 90.9766 848.575 88.7576 850.504 87.9799ZM843.364 99.4674 842.135 100.434 842.378 100.221 839.207 103.323 835.011 99.0346 838.298 95.819 839.654 94.752ZM835.325 107.553 833.055 110.185 833.181 110.028 831.663 112.046 826.868 108.44 828.446 106.342 830.781 103.634ZM828.18 116.732 824.834 121.713 819.853 118.367 823.199 113.387ZM821.712 126.685 819.3 130.63 819.353 130.541 818.677 131.738 813.452 128.788 814.154 127.545 816.593 123.555ZM815.726 136.963 814.718 138.749 814.758 138.675 812.914 142.167 807.609 139.365 809.472 135.835 810.502 134.013ZM810.145 147.412 807.465 152.78 802.097 150.101 804.777 144.732ZM804.84 158.113 802.261 163.53 796.843 160.951 799.423 155.534ZM799.767 168.918 797.301 174.388 791.831 171.923 794.297 166.453ZM794.836 179.858 792.371 185.328 786.901 182.863 789.366 177.393ZM790.009 190.784 787.643 196.298 782.129 193.933 784.495 188.419ZM785.278 201.812 782.913 207.326 777.399 204.961 779.764 199.447ZM780.603 212.836 778.286 218.37 772.751 216.053 775.069 210.518ZM799.509 205.547 771.001 227.998 767 191.932C766.818 190.285 768.005 188.802 769.651 188.619 771.298 188.437 772.781 189.624 772.964 191.27L776.369 221.969 771.531 219.943 795.797 200.833C797.099 199.808 798.985 200.033 800.01 201.334 801.035 202.636 800.811 204.522 799.509 205.547Z" fill="#46B1E1"/><path d="M757 240C757 232.82 762.82 227 770 227 777.18 227 783 232.82 783 240 783 247.18 777.18 253 770 253 762.82 253 757 247.18 757 240Z" stroke="#156082" stroke-width="2" stroke-miterlimit="8" fill="#156082" fill-rule="evenodd"/><path d="M483 366C483 303.592 494.193 253 508 253 521.807 253 533 303.592 533 366 533 428.408 521.807 479 508 479 494.193 479 483 428.408 483 366Z" fill="#C1E5F5" fill-rule="evenodd" fill-opacity="0.478431"/><path d="M759.628 239.444 749.079 225.821 749.133 225.888 738.421 212.851 738.503 212.946 733.034 206.83 733.116 206.918 727.546 201.168 727.654 201.274 721.961 195.964 722.102 196.087 716.266 191.289 716.447 191.427 710.448 187.215 710.677 187.361 704.494 183.808 704.776 183.951 698.389 181.13 698.726 181.256 692.114 179.24 692.498 179.33 685.641 178.193 686.054 178.233 678.931 178.048 679.347 178.03 671.938 178.87 672.331 178.799 664.616 180.737 664.961 180.628 656.926 183.714 657.195 183.595 648.854 187.78 649.06 187.666 640.432 192.875 640.59 192.773 631.697 198.935 631.82 198.845 622.682 205.885 622.778 205.808 613.415 213.653 613.491 213.588 603.924 222.165 603.985 222.11 594.234 231.346 594.283 231.3 584.369 241.122 584.407 241.083 574.35 251.418 574.381 251.386 564.201 262.161 564.225 262.135 553.944 273.276 553.969 273.248 533.181 296.335 533.198 296.316 516.342 315.36 511.849 311.384 528.713 292.33 549.522 269.22 559.828 258.053 570.035 247.25 580.126 236.879 590.084 227.014 599.888 217.726 609.523 209.087 618.971 201.17 628.218 194.046 637.25 187.788 646.059 182.469 654.637 178.166 662.979 174.962 671.063 172.931 678.878 172.044 686.417 172.24 693.674 173.443 700.648 175.569 707.346 178.527 713.784 182.227 719.988 186.582 725.985 191.512 731.802 196.939 737.467 202.786 743.017 208.994 753.797 222.113 764.372 235.77ZM544.221 305.924 510.002 317.998 517.828 282.565C518.186 280.947 519.787 279.926 521.405 280.283 523.023 280.64 524.045 282.242 523.687 283.859L517.025 314.019 513.098 310.543 542.225 300.266C543.787 299.715 545.501 300.534 546.052 302.097 546.603 303.659 545.783 305.373 544.221 305.924Z" fill="#46B1E1"/><path d="M931.735 128.232 910.508 175.353 899.843 198.658 889.123 221.647 878.327 244.213 867.439 266.25 856.438 287.651 845.307 308.31 834.026 328.12 822.575 346.975 810.934 364.769 799.082 381.395 787.01 396.731 780.859 403.912 774.654 410.719 768.378 417.154 762.027 423.204 755.6 428.855 749.092 434.091 742.504 438.901 735.841 443.29 729.107 447.272 722.305 450.857 715.438 454.06 708.479 456.907 694.489 461.506 680.261 464.799 665.855 466.887 651.293 467.88 636.597 467.892 621.785 467.035 606.874 465.421 591.881 463.159 576.823 460.362 561.715 457.136 546.569 453.591 522.263 447.486 523.725 441.667 548.007 447.766 547.96 447.754 563.054 451.287 562.996 451.275 578.036 454.485 577.958 454.47 592.927 457.251 592.827 457.234 607.707 459.478 607.583 459.462 622.356 461.062 622.207 461.049 636.856 461.897 636.68 461.892 651.187 461.88 650.986 461.887 665.333 460.908 665.107 460.932 679.276 458.879 679.03 458.926 693.004 455.691 692.743 455.764 706.504 451.24 706.305 451.313 713.1 448.534 712.968 448.592 719.703 445.451 719.572 445.516 726.244 441.998 726.117 442.07 732.725 438.163 732.601 438.24 739.143 433.93 739.024 434.013 745.497 429.287 745.385 429.372 751.787 424.221 751.687 424.305 758.021 418.738 757.932 418.819 764.199 412.848 764.121 412.926 770.323 406.566 770.254 406.64 776.394 399.904 776.332 399.973 782.413 392.875 782.334 392.971 794.323 377.74 794.237 377.854 806.014 361.335 805.946 361.434 817.526 343.732 817.473 343.817 828.876 325.041 828.833 325.114 840.076 305.371 840.042 305.433 851.142 284.831 851.115 284.883 862.091 263.529 862.07 263.571 872.94 241.572 872.923 241.607 883.704 219.071 883.691 219.098 894.401 196.132 894.392 196.152 905.048 172.864 905.041 172.88 926.265 125.768ZM543.475 467.89 517.003 443.072 552.06 433.707C553.661 433.279 555.305 434.23 555.733 435.831 556.16 437.432 555.209 439.076 553.609 439.504L523.768 447.475 525.046 442.388 547.579 463.513C548.788 464.646 548.849 466.545 547.716 467.753 546.582 468.962 544.684 469.023 543.475 467.89Z" fill="#4E95D9"/><text font-family="Cambria Math,Cambria Math_MSFontService,sans-serif" font-weight="400" font-size="48" transform="translate(953.631 165)">ğ±</text><text font-family="Cambria Math,Cambria Math_MSFontService,sans-serif" font-weight="400" font-size="35" transform="translate(981.124 175)">ğ‘ </text><path d="M913 125.5C913 118.596 918.596 113 925.5 113 932.404 113 938 118.596 938 125.5 938 132.404 932.404 138 925.5 138 918.596 138 913 132.404 913 125.5Z" stroke="#000000" stroke-width="2" stroke-miterlimit="8" fill-rule="evenodd"/><text fill="#46B1E1" font-family="Times New Roman,Times New Roman_MSFontService,sans-serif" font-weight="400" font-size="43" transform="translate(777.6 59)">Few steps of ODE solver</text><path d="M497.461 339.356 447.5 265.5" stroke="#46B1E1" stroke-width="2.66667" stroke-miterlimit="8" fill="none" fill-rule="evenodd"/><text fill="#46B1E1" font-family="Times New Roman,Times New Roman_MSFontService,sans-serif" font-weight="400" font-size="43" transform="translate(198.824 198)">CTM enforces</text><text fill="#46B1E1" font-family="Times New Roman,Times New Roman_MSFontService,sans-serif" font-weight="400" font-size="43" transform="translate(134.904 249)">trajectory</text><text fill="#46B1E1" font-family="Times New Roman,Times New Roman_MSFontService,sans-serif" font-weight="400" font-size="43" transform="translate(298.404 249)">-</text><text fill="#46B1E1" font-family="Times New Roman,Times New Roman_MSFontService,sans-serif" font-weight="400" font-size="43" transform="translate(312.571 249)">wide match</text></g></svg>