<svg width="1280" height="720" xmlns="http://www.w3.org/2000/svg" xmlns:xlink="http://www.w3.org/1999/xlink" overflow="hidden"><g><rect x="0" y="0" width="1280" height="720" fill="#FFFFFF"/><path d="M100 447C142.085 346.146 184.171 245.293 262.329 240.839 340.488 236.385 461.376 438.94 568.952 420.275 676.527 401.611 798.275 157.484 907.783 128.85 1017.29 100.217 1145.05 240.415 1226 248.475" stroke="#D1D1D1" stroke-width="6" stroke-miterlimit="8" fill="none" fill-rule="evenodd"/><path d="M52.7734 542.167 1229.8 542.167 1229.8 545.833 52.7734 545.833ZM68.3863 554.769 49.0016 544 68.3863 533.231C69.2714 532.739 70.3876 533.058 70.8793 533.943 71.371 534.828 71.0521 535.944 70.167 536.436L53.667 545.603 53.667 542.397 70.167 551.564C71.0521 552.056 71.371 553.172 70.8793 554.057 70.3876 554.942 69.2714 555.261 68.3863 554.769Z"/><text font-family="Times New Roman,Times New Roman_MSFontService,sans-serif" font-weight="400" font-size="43" transform="translate(21.3446 650)">Time</text><text font-family="Cambria Math,Cambria Math_MSFontService,sans-serif" font-weight="400" font-size="43" transform="translate(124.511 650)">0</text><text font-family="Times New Roman,Times New Roman_MSFontService,sans-serif" font-weight="400" font-size="43" transform="translate(33.3312 702)">Clean</text><text font-family="Times New Roman,Times New Roman_MSFontService,sans-serif" font-weight="400" font-size="43" transform="translate(1133.07 651)">Time</text><text font-family="Cambria Math,Cambria Math_MSFontService,sans-serif" font-weight="400" font-size="43" transform="translate(1236.23 651)">ğ‘‡</text><text font-family="Times New Roman,Times New Roman_MSFontService,sans-serif" font-weight="400" font-size="43" transform="translate(1146.35 702)">Noise</text><text fill="#7F7F7F" font-family="Times New Roman,Times New Roman_MSFontService,sans-serif" font-weight="400" font-size="43" transform="translate(212.076 161)">PF</text><text fill="#7F7F7F" font-family="Times New Roman,Times New Roman_MSFontService,sans-serif" font-weight="400" font-size="43" transform="translate(261.009 161)">-</text><text fill="#7F7F7F" font-family="Times New Roman,Times New Roman_MSFontService,sans-serif" font-weight="400" font-size="43" transform="translate(275.976 161)">ODE</text><text fill="#7F7F7F" font-family="Times New Roman,Times New Roman_MSFontService,sans-serif" font-weight="400" font-size="43" transform="translate(132.309 212)">Oracle Trajectory</text><path d="M507.5 68.5001 507.5 587.726" stroke="#D1D1D1" stroke-width="3" stroke-miterlimit="8" stroke-dasharray="12 9" fill="none" fill-rule="evenodd"/><text font-family="Cambria Math,Cambria Math_MSFontService,sans-serif" font-weight="400" font-size="43" transform="translate(498.016 625)">ğ‘¡</text><path d="M925.5 68.5001 925.5 587.726" stroke="#D1D1D1" stroke-width="3" stroke-miterlimit="8" stroke-dasharray="12 9" fill="none" fill-rule="evenodd"/><text font-family="Cambria Math,Cambria Math_MSFontService,sans-serif" font-weight="400" font-size="43" transform="translate(914.591 625)">ğ‘ </text><path d="M100.5 68.5001 100.5 587.726" stroke="#D1D1D1" stroke-width="3" stroke-miterlimit="8" stroke-dasharray="12 9" fill="none" fill-rule="evenodd"/><path d="M931.679 128.351 910.09 171.151 899.243 192.322 888.338 213.205 877.357 233.706 866.281 253.727 855.09 273.171 843.766 291.942 832.288 309.943 820.637 327.076 808.792 343.247 796.731 358.357 784.433 372.311 771.873 385.009 759.051 396.333 752.491 401.483 745.874 406.239 739.176 410.606 732.375 414.608 718.655 421.458 704.647 426.932 690.41 431.112 675.968 434.098 661.345 435.99 646.562 436.891 631.64 436.902 616.596 436.124 601.448 434.66 586.214 432.608 570.91 430.068 555.553 427.14 540.155 423.921 515.374 418.363 516.687 412.508 541.447 418.062 541.404 418.052 556.755 421.262 556.702 421.251 571.998 424.168 571.928 424.155 587.151 426.681 587.06 426.668 602.194 428.706 602.082 428.693 617.107 430.146 616.973 430.136 631.871 430.906 631.714 430.902 646.468 430.891 646.287 430.897 660.878 430.008 660.676 430.027 675.086 428.162 674.863 428.199 689.075 425.261 688.837 425.321 702.832 421.212 702.585 421.296 716.344 415.919 716.096 416.029 729.603 409.286 729.421 409.384 736.074 405.47 735.957 405.542 742.539 401.25 742.427 401.327 748.938 396.648 748.836 396.724 755.278 391.667 755.144 391.778 767.825 380.579 767.678 380.718 780.106 368.153 779.989 368.279 792.182 354.445 792.088 354.557 804.064 339.553 803.988 339.651 815.766 323.573 815.705 323.659 827.301 306.605 827.253 306.679 838.687 288.747 838.647 288.811 849.937 270.098 849.905 270.151 861.068 250.756 861.043 250.8 872.097 230.819 872.078 230.855 883.042 210.386 883.027 210.414 893.919 189.555 893.908 189.575 904.746 168.424 904.737 168.44 926.321 125.649ZM537.097 438.221 510.003 414.083 544.811 403.83C546.4 403.362 548.068 404.271 548.536 405.86 549.004 407.45 548.095 409.118 546.506 409.586L516.878 418.313 518.026 413.195 541.088 433.741C542.325 434.843 542.435 436.739 541.333 437.976 540.231 439.213 538.334 439.323 537.097 438.221Z" fill="#4E95D9"/><text font-family="Cambria Math,Cambria Math_MSFontService,sans-serif" font-weight="400" font-size="48" transform="translate(953.631 165)">ğ±</text><text font-family="Cambria Math,Cambria Math_MSFontService,sans-serif" font-weight="400" font-size="35" transform="translate(981.124 175)">ğ‘ </text><path d="M913 125.5C913 118.596 918.596 113 925.5 113 932.404 113 938 118.596 938 125.5 938 132.404 932.404 138 925.5 138 918.596 138 913 132.404 913 125.5Z" stroke="#000000" stroke-width="2" stroke-miterlimit="8" fill-rule="evenodd"/><path d="M491 411C491 403.82 496.82 398 504 398 511.18 398 517 403.82 517 411 517 418.18 511.18 424 504 424 496.82 424 491 418.18 491 411Z" stroke="#000000" stroke-width="2" stroke-miterlimit="8" fill-rule="evenodd"/><text fill="#4E95D9" font-family="Cambria Math,Cambria Math_MSFontService,sans-serif" font-weight="400" font-size="48" transform="translate(771.541 441)">ğš¿</text><text fill="#4E95D9" font-family="Cambria Math,Cambria Math_MSFontService,sans-serif" font-weight="400" font-size="35" transform="translate(808.027 450)">ğ‘ </text><text fill="#4E95D9" font-family="Cambria Math,Cambria Math_MSFontService,sans-serif" font-weight="400" font-size="35" transform="translate(825.747 450)">â†’</text><text fill="#4E95D9" font-family="Cambria Math,Cambria Math_MSFontService,sans-serif" font-weight="400" font-size="35" transform="translate(855.081 450)">ğ‘¡</text><path d="M940.811 404.596C945.373 405.8 948.877 408.397 951.323 412.389 953.768 416.382 954.99 421.198 954.99 426.839 954.99 432.495 953.772 437.311 951.334 441.288 948.897 445.264 945.389 447.854 940.811 449.057L940.248 447.253C943.858 446.05 946.541 443.675 948.299 440.128 950.057 436.581 950.936 432.073 950.936 426.604 950.936 421.323 950.061 416.936 948.311 413.444 946.561 409.952 943.85 407.604 940.178 406.401ZM891.912 404.596 892.545 406.401C888.889 407.604 886.182 409.952 884.424 413.444 882.666 416.936 881.787 421.323 881.787 426.604 881.787 432.073 882.666 436.581 884.424 440.128 886.182 443.675 888.866 446.05 892.475 447.253L891.912 449.057C887.334 447.854 883.827 445.264 881.389 441.288 878.952 437.311 877.733 432.495 877.733 426.839 877.733 421.198 878.955 416.382 881.401 412.389 883.846 408.397 887.35 405.8 891.912 404.596Z" fill="#4E95D9" fill-rule="evenodd"/><text fill="#4E95D9" font-family="Cambria Math,Cambria Math_MSFontService,sans-serif" font-weight="400" font-size="48" transform="translate(893.434 441)">ğ±</text><text fill="#4E95D9" font-family="Cambria Math,Cambria Math_MSFontService,sans-serif" font-weight="400" font-size="35" transform="translate(920.127 450)">s</text></g></svg>