<svg width="1280" height="720" xmlns="http://www.w3.org/2000/svg" xmlns:xlink="http://www.w3.org/1999/xlink" overflow="hidden"><g><rect x="0" y="0" width="1280" height="720" fill="#FFFFFF"/><path d="M100 447C142.085 346.146 184.171 245.293 262.329 240.839 340.488 236.385 461.376 438.94 568.952 420.275 676.527 401.611 798.275 157.484 907.783 128.85 1017.29 100.217 1145.05 240.415 1226 248.475" stroke="#D1D1D1" stroke-width="6" stroke-miterlimit="8" fill="none" fill-rule="evenodd"/><path d="M52.7734 542.167 1229.8 542.167 1229.8 545.833 52.7734 545.833ZM68.3863 554.769 49.0016 544 68.3863 533.231C69.2714 532.739 70.3876 533.058 70.8793 533.943 71.371 534.828 71.0521 535.944 70.167 536.436L53.667 545.603 53.667 542.397 70.167 551.564C71.0521 552.056 71.371 553.172 70.8793 554.057 70.3876 554.942 69.2714 555.261 68.3863 554.769Z"/><text font-family="Times New Roman,Times New Roman_MSFontService,sans-serif" font-weight="400" font-size="43" transform="translate(21.3446 650)">Time</text><text font-family="Cambria Math,Cambria Math_MSFontService,sans-serif" font-weight="400" font-size="43" transform="translate(124.511 650)">0</text><text font-family="Times New Roman,Times New Roman_MSFontService,sans-serif" font-weight="400" font-size="43" transform="translate(33.3312 702)">Clean</text><text font-family="Times New Roman,Times New Roman_MSFontService,sans-serif" font-weight="400" font-size="43" transform="translate(1133.07 651)">Time</text><text font-family="Cambria Math,Cambria Math_MSFontService,sans-serif" font-weight="400" font-size="43" transform="translate(1236.23 651)">ğ‘‡</text><text font-family="Times New Roman,Times New Roman_MSFontService,sans-serif" font-weight="400" font-size="43" transform="translate(1146.35 702)">Noise</text><text fill="#7F7F7F" font-family="Times New Roman,Times New Roman_MSFontService,sans-serif" font-weight="400" font-size="43" transform="translate(1033.63 305)">PF</text><text fill="#7F7F7F" font-family="Times New Roman,Times New Roman_MSFontService,sans-serif" font-weight="400" font-size="43" transform="translate(1082.56 305)">-</text><text fill="#7F7F7F" font-family="Times New Roman,Times New Roman_MSFontService,sans-serif" font-weight="400" font-size="43" transform="translate(1097.53 305)">ODE</text><text fill="#7F7F7F" font-family="Times New Roman,Times New Roman_MSFontService,sans-serif" font-weight="400" font-size="43" transform="translate(953.859 356)">Oracle Trajectory</text><path d="M507.5 68.5001 507.5 587.726" stroke="#D1D1D1" stroke-width="3" stroke-miterlimit="8" stroke-dasharray="12 9" fill="none" fill-rule="evenodd"/><text font-family="Cambria Math,Cambria Math_MSFontService,sans-serif" font-weight="400" font-size="43" transform="translate(498.016 625)">ğ‘¡</text><path d="M925.5 68.5001 925.5 587.726" stroke="#D1D1D1" stroke-width="3" stroke-miterlimit="8" stroke-dasharray="12 9" fill="none" fill-rule="evenodd"/><text font-family="Cambria Math,Cambria Math_MSFontService,sans-serif" font-weight="400" font-size="43" transform="translate(914.591 625)">ğ‘ </text><path d="M100.5 68.5001 100.5 587.726" stroke="#D1D1D1" stroke-width="3" stroke-miterlimit="8" stroke-dasharray="12 9" fill="none" fill-rule="evenodd"/><path d="M768.5 68.5001 768.5 587.726" stroke="#D1D1D1" stroke-width="3" stroke-miterlimit="8" stroke-dasharray="12 9" fill="none" fill-rule="evenodd"/><text font-family="Cambria Math,Cambria Math_MSFontService,sans-serif" font-weight="400" font-size="43" transform="translate(755.167 625)">ğ‘¢</text><path d="M923.084 124.38 912.914 115.942 912.978 115.993 902.825 108.029 902.966 108.133 892.847 101.114 893.021 101.226 887.979 98.2191 888.141 98.3087 883.114 95.7158 883.32 95.8125 878.311 93.6926 878.571 93.7886 873.581 92.201 873.901 92.2836 868.932 91.2873 869.313 91.3385 864.368 90.9926 864.798 90.9917 859.879 91.3554 860.335 91.2862 855.443 92.4186 855.888 92.2782 851.027 94.2383 851.429 94.0403 846.599 96.8874 846.931 96.6608 842.135 100.434 842.378 100.221 837.615 104.881 837.788 104.696 833.055 110.185 833.181 110.028 828.475 116.285 828.567 116.155 823.887 123.122 823.957 123.013 819.3 130.63 819.353 130.541 814.718 138.749 814.758 138.675 810.142 147.415 810.174 147.354 805.575 156.567 805.6 156.517 801.016 166.145 801.042 166.088 791.911 186.348 791.933 186.298 782.837 207.504 782.847 207.48 776.154 223.459 770.62 221.141 777.317 205.15 786.43 183.907 795.585 163.594 800.194 153.913 804.821 144.644 809.472 135.835 814.154 127.545 818.871 119.829 823.632 112.743 828.446 106.342 833.328 100.681 838.298 95.819 843.379 91.821 848.575 88.7576 853.862 86.626 859.206 85.3887 864.571 84.9922 869.923 85.3666 875.243 86.4333 880.522 88.1131 885.764 90.3313 890.973 93.0187 896.182 96.1256 906.459 103.253 916.714 111.298 926.916 119.762ZM799.509 205.547 771.001 227.998 767 191.932C766.818 190.285 768.005 188.802 769.651 188.619 771.298 188.437 772.781 189.624 772.964 191.27L776.369 221.969 771.531 219.943 795.797 200.833C797.099 199.808 798.985 200.033 800.01 201.334 801.035 202.636 800.811 204.522 799.509 205.547Z" fill="#46B1E1"/><path d="M765.563 234.512 749.638 217.312 749.672 217.347 741.709 209.024 741.752 209.068 733.789 201.077 733.85 201.137 725.888 193.589 725.972 193.666 718.009 186.672 718.122 186.767 710.159 180.437 710.31 180.55 702.347 174.996 702.546 175.123 694.583 170.455 694.844 170.592 686.881 166.921 687.218 167.052 679.254 164.488 679.674 164.591 671.71 163.246 672.204 163.288 664.24 163.272 664.638 163.246 660.656 163.771 660.925 163.723 656.943 164.622 657.204 164.55 653.222 165.837 653.471 165.744 649.489 167.432 649.719 167.323 645.737 169.427 645.946 169.305 641.963 171.838 642.147 171.711 638.165 174.682 638.319 174.559 634.337 177.959 634.464 177.844 630.482 181.66 630.587 181.553 626.605 185.77 626.693 185.673 622.71 190.278 622.784 190.189 618.801 195.168 618.89 195.051 610.925 206.074 611.014 205.943 603.049 218.296 603.115 218.189 595.149 231.759 595.198 231.672 587.232 246.35 587.27 246.278 579.304 261.954 579.333 261.895 571.367 278.456 571.389 278.409 563.423 295.745 563.44 295.707 555.474 313.708 555.487 313.678 547.52 332.233 547.53 332.209 539.564 351.208 539.571 351.191 531.604 370.521 531.61 370.507 518.003 403.997 512.444 401.738 526.054 368.242 534.027 348.896 542.002 329.878 549.98 311.295 557.962 293.259 565.948 275.879 573.94 259.265 581.94 243.524 589.949 228.766 597.972 215.097 606.015 202.625 614.07 191.477 618.134 186.396 622.198 181.699 626.277 177.379 630.375 173.452 634.498 169.932 638.649 166.835 642.828 164.178 647.03 161.958 651.251 160.168 655.489 158.799 659.737 157.84 664.052 157.271 672.464 157.288 680.887 158.711 689.228 161.396 697.49 165.204 705.682 170.007 713.819 175.682 721.913 182.116 729.974 189.196 738.009 196.812 746.024 204.855 754.024 213.217 769.966 230.435ZM541.165 385.837 512.898 408.59 508.512 372.57C508.312 370.925 509.483 369.429 511.128 369.229 512.772 369.029 514.268 370.2 514.468 371.844L518.201 402.505 513.342 400.53 537.402 381.163C538.693 380.124 540.582 380.328 541.62 381.619 542.659 382.909 542.455 384.798 541.165 385.837Z" fill="#46B1E1"/><path d="M931.679 128.351 910.09 171.151 899.243 192.322 888.338 213.205 877.357 233.706 866.281 253.727 855.09 273.171 843.766 291.942 832.288 309.943 820.637 327.076 808.792 343.247 796.731 358.357 784.433 372.311 771.873 385.009 759.051 396.333 752.491 401.483 745.874 406.239 739.176 410.606 732.375 414.608 718.655 421.458 704.647 426.932 690.41 431.112 675.968 434.098 661.345 435.99 646.562 436.891 631.64 436.902 616.596 436.124 601.448 434.66 586.214 432.608 570.91 430.068 555.553 427.14 540.155 423.921 515.374 418.363 516.687 412.508 541.447 418.062 541.404 418.052 556.755 421.262 556.702 421.251 571.998 424.168 571.928 424.155 587.151 426.681 587.06 426.668 602.194 428.706 602.082 428.693 617.107 430.146 616.973 430.136 631.871 430.906 631.714 430.902 646.468 430.891 646.287 430.897 660.878 430.008 660.676 430.027 675.086 428.162 674.863 428.199 689.075 425.261 688.837 425.321 702.832 421.212 702.585 421.296 716.344 415.919 716.096 416.029 729.603 409.286 729.421 409.384 736.074 405.47 735.957 405.542 742.539 401.25 742.427 401.327 748.938 396.648 748.836 396.724 755.278 391.667 755.144 391.778 767.825 380.579 767.678 380.718 780.106 368.153 779.989 368.279 792.182 354.445 792.088 354.557 804.064 339.553 803.988 339.651 815.766 323.573 815.705 323.659 827.301 306.605 827.253 306.679 838.687 288.747 838.647 288.811 849.937 270.098 849.905 270.151 861.068 250.756 861.043 250.8 872.097 230.819 872.078 230.855 883.042 210.386 883.027 210.414 893.919 189.555 893.908 189.575 904.746 168.424 904.737 168.44 926.321 125.649ZM537.097 438.221 510.003 414.083 544.811 403.83C546.4 403.362 548.068 404.271 548.536 405.86 549.004 407.45 548.095 409.118 546.506 409.586L516.878 418.313 518.026 413.195 541.088 433.741C542.325 434.843 542.435 436.739 541.333 437.976 540.231 439.213 538.334 439.323 537.097 438.221Z" fill="#4E95D9"/><text font-family="Cambria Math,Cambria Math_MSFontService,sans-serif" font-weight="400" font-size="48" transform="translate(953.631 165)">ğ±</text><text font-family="Cambria Math,Cambria Math_MSFontService,sans-serif" font-weight="400" font-size="35" transform="translate(981.124 175)">ğ‘ </text><path d="M913 125.5C913 118.596 918.596 113 925.5 113 932.404 113 938 118.596 938 125.5 938 132.404 932.404 138 925.5 138 918.596 138 913 132.404 913 125.5Z" stroke="#000000" stroke-width="2" stroke-miterlimit="8" fill-rule="evenodd"/><path d="M491 411C491 403.82 496.82 398 504 398 511.18 398 517 403.82 517 411 517 418.18 511.18 424 504 424 496.82 424 491 418.18 491 411Z" stroke="#000000" stroke-width="2" stroke-miterlimit="8" fill-rule="evenodd"/><path d="M757 240C757 232.82 762.82 227 770 227 777.18 227 783 232.82 783 240 783 247.18 777.18 253 770 253 762.82 253 757 247.18 757 240Z" stroke="#000000" stroke-width="2" stroke-miterlimit="8" fill-rule="evenodd"/><text fill="#46B1E1" font-family="Cambria Math,Cambria Math_MSFontService,sans-serif" font-weight="400" font-size="48" transform="translate(827.083 61)">ğš¿</text><text fill="#46B1E1" font-family="Cambria Math,Cambria Math_MSFontService,sans-serif" font-weight="400" font-size="35" transform="translate(863.57 71)">ğ‘ </text><text fill="#46B1E1" font-family="Cambria Math,Cambria Math_MSFontService,sans-serif" font-weight="400" font-size="35" transform="translate(881.29 71)">â†’</text><text fill="#46B1E1" font-family="Cambria Math,Cambria Math_MSFontService,sans-serif" font-weight="400" font-size="35" transform="translate(910.623 71)">ğ‘¢</text><text fill="#46B1E1" font-family="Cambria Math,Cambria Math_MSFontService,sans-serif" font-weight="400" font-size="48" transform="translate(565.038 137)">ğš¿</text><text fill="#46B1E1" font-family="Cambria Math,Cambria Math_MSFontService,sans-serif" font-weight="400" font-size="35" transform="translate(601.524 147)">ğ‘¢</text><text fill="#46B1E1" font-family="Cambria Math,Cambria Math_MSFontService,sans-serif" font-weight="400" font-size="35" transform="translate(624.958 147)">â†’</text><text fill="#46B1E1" font-family="Cambria Math,Cambria Math_MSFontService,sans-serif" font-weight="400" font-size="35" transform="translate(654.291 147)">ğ‘¡</text><text fill="#4E95D9" font-family="Cambria Math,Cambria Math_MSFontService,sans-serif" font-weight="400" font-size="48" transform="translate(769.812 440)">ğš¿</text><text fill="#4E95D9" font-family="Cambria Math,Cambria Math_MSFontService,sans-serif" font-weight="400" font-size="35" transform="translate(806.299 450)">ğ‘ </text><text fill="#4E95D9" font-family="Cambria Math,Cambria Math_MSFontService,sans-serif" font-weight="400" font-size="35" transform="translate(824.019 450)">â†’</text><text fill="#4E95D9" font-family="Cambria Math,Cambria Math_MSFontService,sans-serif" font-weight="400" font-size="35" transform="translate(853.352 450)">ğ‘¡</text></g></svg>